<?xml version="1.0" encoding="UTF-8" standalone="no"?>
<!DOCTYPE svg PUBLIC "-//W3C//DTD SVG 1.1//EN" "http://www.w3.org/Graphics/SVG/1.1/DTD/svg11.dtd">
<svg width="100%" height="100%" viewBox="0 0 486 486" version="1.1" xmlns="http://www.w3.org/2000/svg" xmlns:xlink="http://www.w3.org/1999/xlink" xml:space="preserve" xmlns:serif="http://www.serif.com/" style="fill-rule:evenodd;clip-rule:evenodd;stroke-linejoin:round;stroke-miterlimit:1.41421;">
    <g>
        <path d="M349.6,28.95C313.3,28.95 279.1,43.15 253.4,68.85L242.8,79.45L232,68.65C206.3,42.95 172.1,28.75 135.8,28.75C99.6,28.75 65.5,42.85 39.8,68.55C14.1,94.25 0,128.35 0,164.65C0,200.95 14.2,235.05 39.9,260.75L230.8,451.65C234.1,454.95 238.5,456.55 242.8,456.55C247.2,456.55 251.6,454.85 254.9,451.55L445.4,261.05C471.1,235.35 485.3,201.25 485.3,164.95C485.3,128.65 471.2,94.45 445.5,68.85C419.9,43.05 385.8,28.95 349.6,28.95ZM421.2,236.75L242.9,415.15L64.2,236.45C45,217.25 34.4,191.75 34.3,164.55C34.3,137.45 44.8,111.95 64,92.75C83.2,73.65 108.7,63.05 135.7,63.05C162.9,63.05 188.4,73.65 207.7,92.95L230.6,115.85C237,122.25 248.4,122.25 254.9,115.85L277.7,93.05C296.9,73.85 322.5,63.25 349.6,63.25C376.7,63.25 402.2,73.85 421.4,93.05C440.6,112.25 451.2,137.75 451.1,164.95C451.1,192.05 440.5,217.55 421.2,236.75Z" style="fill-rule:nonzero;"/>
    </g>
</svg>
