<?xml version="1.0" encoding="UTF-8" standalone="no"?>
<!DOCTYPE svg PUBLIC "-//W3C//DTD SVG 1.1//EN" "http://www.w3.org/Graphics/SVG/1.1/DTD/svg11.dtd">
<svg width="100%" height="100%" viewBox="0 0 217 217" version="1.1" xmlns="http://www.w3.org/2000/svg" xmlns:xlink="http://www.w3.org/1999/xlink" xml:space="preserve" xmlns:serif="http://www.serif.com/" style="fill-rule:evenodd;clip-rule:evenodd;stroke-linejoin:round;stroke-miterlimit:1.41421;">
    <path d="M207.449,8.626C201.89,3.064 194.404,0 186.369,0C177.812,0 169.693,3.408 163.501,9.598L132.517,42.713L25.956,10.816L5.153,31.621C2.948,33.823 1.736,36.755 1.736,39.872C1.738,42.987 2.951,45.917 5.155,48.119L5.819,48.785L85.762,92.784L57.588,123.347C55.494,125.453 53.647,127.721 52.066,130.128L17.195,121.103L3.29,135.01C-0.773,139.073 -0.773,145.686 3.29,149.751L4.035,150.498L43.78,170.658L45.89,172.768L66.053,212.513L66.796,213.256C68.767,215.229 71.385,216.316 74.174,216.316C76.958,216.316 79.574,215.231 81.542,213.266L95.447,199.361L86.246,163.807C88.545,162.27 90.712,160.492 92.727,158.49L123.429,130.184L167.311,209.913L167.763,210.737L168.429,211.401C170.633,213.607 173.563,214.822 176.68,214.822C179.795,214.822 182.725,213.607 184.927,211.403L205.732,190.6L173.622,83.317L206.474,52.579C212.428,46.627 215.832,38.815 216.061,30.584C216.297,22.214 213.238,14.415 207.449,8.626Z" style="fill-rule:nonzero;"/>
</svg>
