<?xml version="1.0" encoding="UTF-8" standalone="no"?>
<!DOCTYPE svg PUBLIC "-//W3C//DTD SVG 1.1//EN" "http://www.w3.org/Graphics/SVG/1.1/DTD/svg11.dtd">
<svg width="100%" height="100%" viewBox="0 0 256 256" version="1.1" xmlns="http://www.w3.org/2000/svg" xmlns:xlink="http://www.w3.org/1999/xlink" xml:space="preserve" xmlns:serif="http://www.serif.com/" style="fill-rule:evenodd;clip-rule:evenodd;stroke-linejoin:round;stroke-miterlimit:1.41421;">
    <path d="M128,0C198.645,0 256,57.355 256,128C256,198.645 198.645,256 128,256C57.355,256 0,198.645 0,128C0,57.355 57.355,0 128,0ZM106.532,106.532L106.532,40C106.532,38.674 107.059,37.402 107.997,36.464C108.935,35.527 110.206,35 111.533,35C119.795,35 136.205,35 144.467,35C145.794,35 147.065,35.527 148.003,36.464C148.941,37.402 149.468,38.674 149.468,40L149.468,106.532L216,106.532C217.326,106.532 218.598,107.059 219.536,107.997C220.473,108.935 221,110.206 221,111.533C221,119.795 221,136.205 221,144.467C221,145.794 220.473,147.065 219.536,148.003C218.598,148.941 217.326,149.468 216,149.468L149.468,149.468L149.468,216C149.468,217.326 148.941,218.598 148.003,219.536C147.065,220.473 145.794,221 144.467,221C136.205,221 119.795,221 111.533,221C110.206,221 108.935,220.473 107.997,219.536C107.059,218.598 106.532,217.326 106.532,216L106.532,149.468L40,149.468C38.674,149.468 37.402,148.941 36.464,148.003C35.527,147.065 35,145.794 35,144.467C35,136.205 35,119.795 35,111.533C35,110.206 35.527,108.935 36.464,107.997C37.402,107.059 38.674,106.532 40,106.532L106.532,106.532Z"/>
</svg>
